<mxfile host="app.diagrams.net" agent="Mozilla/5.0 (X11; Ubuntu; Linux x86_64; rv:137.0) Gecko/20100101 Firefox/137.0" version="26.2.14">
  <diagram id="C5RBs43oDa-KdzZeNtuy" name="Page-1">
    <mxGraphModel dx="1360" dy="795" grid="1" gridSize="10" guides="1" tooltips="1" connect="1" arrows="1" fold="1" page="1" pageScale="1" pageWidth="827" pageHeight="1169" math="0" shadow="0">
      <root>
        <mxCell id="WIyWlLk6GJQsqaUBKTNV-0" />
        <mxCell id="WIyWlLk6GJQsqaUBKTNV-1" parent="WIyWlLk6GJQsqaUBKTNV-0" />
        <mxCell id="GOfJNdNeNU2Qqo1dJbFf-80" style="edgeStyle=orthogonalEdgeStyle;rounded=0;orthogonalLoop=1;jettySize=auto;html=1;" edge="1" parent="WIyWlLk6GJQsqaUBKTNV-1" source="GOfJNdNeNU2Qqo1dJbFf-1" target="GOfJNdNeNU2Qqo1dJbFf-65">
          <mxGeometry relative="1" as="geometry" />
        </mxCell>
        <mxCell id="GOfJNdNeNU2Qqo1dJbFf-1" value="Inicio" style="ellipse;whiteSpace=wrap;html=1;" vertex="1" parent="WIyWlLk6GJQsqaUBKTNV-1">
          <mxGeometry x="340" y="50" width="120" height="80" as="geometry" />
        </mxCell>
        <mxCell id="GOfJNdNeNU2Qqo1dJbFf-8" value="Fin" style="ellipse;whiteSpace=wrap;html=1;" vertex="1" parent="WIyWlLk6GJQsqaUBKTNV-1">
          <mxGeometry x="240" y="970" width="120" height="80" as="geometry" />
        </mxCell>
        <mxCell id="GOfJNdNeNU2Qqo1dJbFf-81" style="edgeStyle=orthogonalEdgeStyle;rounded=0;orthogonalLoop=1;jettySize=auto;html=1;" edge="1" parent="WIyWlLk6GJQsqaUBKTNV-1" source="GOfJNdNeNU2Qqo1dJbFf-65" target="GOfJNdNeNU2Qqo1dJbFf-66">
          <mxGeometry relative="1" as="geometry" />
        </mxCell>
        <mxCell id="GOfJNdNeNU2Qqo1dJbFf-65" value="&lt;div&gt;valor_cuenta,&lt;/div&gt;&lt;div&gt;porcentaje_propina&lt;/div&gt;" style="shape=parallelogram;perimeter=parallelogramPerimeter;whiteSpace=wrap;html=1;fixedSize=1;" vertex="1" parent="WIyWlLk6GJQsqaUBKTNV-1">
          <mxGeometry x="330" y="200" width="140" height="70" as="geometry" />
        </mxCell>
        <mxCell id="GOfJNdNeNU2Qqo1dJbFf-79" style="edgeStyle=orthogonalEdgeStyle;rounded=0;orthogonalLoop=1;jettySize=auto;html=1;" edge="1" parent="WIyWlLk6GJQsqaUBKTNV-1" source="GOfJNdNeNU2Qqo1dJbFf-66" target="GOfJNdNeNU2Qqo1dJbFf-68">
          <mxGeometry relative="1" as="geometry" />
        </mxCell>
        <mxCell id="GOfJNdNeNU2Qqo1dJbFf-66" value="True" style="rhombus;whiteSpace=wrap;html=1;" vertex="1" parent="WIyWlLk6GJQsqaUBKTNV-1">
          <mxGeometry x="350" y="330" width="90" height="90" as="geometry" />
        </mxCell>
        <mxCell id="GOfJNdNeNU2Qqo1dJbFf-67" value="Si" style="text;html=1;align=center;verticalAlign=middle;whiteSpace=wrap;rounded=0;" vertex="1" parent="WIyWlLk6GJQsqaUBKTNV-1">
          <mxGeometry x="600" y="660" width="60" height="30" as="geometry" />
        </mxCell>
        <mxCell id="GOfJNdNeNU2Qqo1dJbFf-77" style="edgeStyle=orthogonalEdgeStyle;rounded=0;orthogonalLoop=1;jettySize=auto;html=1;entryX=1;entryY=0.5;entryDx=0;entryDy=0;" edge="1" parent="WIyWlLk6GJQsqaUBKTNV-1" source="GOfJNdNeNU2Qqo1dJbFf-68" target="GOfJNdNeNU2Qqo1dJbFf-76">
          <mxGeometry relative="1" as="geometry" />
        </mxCell>
        <mxCell id="GOfJNdNeNU2Qqo1dJbFf-68" value="porcentaje_propina == 10 or 20 or 30" style="rhombus;whiteSpace=wrap;html=1;" vertex="1" parent="WIyWlLk6GJQsqaUBKTNV-1">
          <mxGeometry x="510" y="480" width="150" height="145" as="geometry" />
        </mxCell>
        <mxCell id="GOfJNdNeNU2Qqo1dJbFf-70" value="No" style="text;html=1;align=center;verticalAlign=middle;whiteSpace=wrap;rounded=0;" vertex="1" parent="WIyWlLk6GJQsqaUBKTNV-1">
          <mxGeometry x="460" y="500" width="60" height="30" as="geometry" />
        </mxCell>
        <mxCell id="GOfJNdNeNU2Qqo1dJbFf-83" style="edgeStyle=orthogonalEdgeStyle;rounded=0;orthogonalLoop=1;jettySize=auto;html=1;" edge="1" parent="WIyWlLk6GJQsqaUBKTNV-1" source="GOfJNdNeNU2Qqo1dJbFf-71" target="GOfJNdNeNU2Qqo1dJbFf-82">
          <mxGeometry relative="1" as="geometry" />
        </mxCell>
        <mxCell id="GOfJNdNeNU2Qqo1dJbFf-71" value="&lt;div&gt;propina = (valor_cuenta*porcentaje_propina)/&lt;/div&gt;&lt;div&gt;100&lt;/div&gt;" style="rounded=0;whiteSpace=wrap;html=1;" vertex="1" parent="WIyWlLk6GJQsqaUBKTNV-1">
          <mxGeometry x="480" y="710" width="200" height="100" as="geometry" />
        </mxCell>
        <mxCell id="GOfJNdNeNU2Qqo1dJbFf-72" style="edgeStyle=orthogonalEdgeStyle;rounded=0;orthogonalLoop=1;jettySize=auto;html=1;entryX=0.535;entryY=0.01;entryDx=0;entryDy=0;entryPerimeter=0;" edge="1" parent="WIyWlLk6GJQsqaUBKTNV-1" source="GOfJNdNeNU2Qqo1dJbFf-68" target="GOfJNdNeNU2Qqo1dJbFf-71">
          <mxGeometry relative="1" as="geometry" />
        </mxCell>
        <mxCell id="GOfJNdNeNU2Qqo1dJbFf-74" value="Si" style="text;html=1;align=center;verticalAlign=middle;whiteSpace=wrap;rounded=0;" vertex="1" parent="WIyWlLk6GJQsqaUBKTNV-1">
          <mxGeometry x="440" y="330" width="60" height="30" as="geometry" />
        </mxCell>
        <mxCell id="GOfJNdNeNU2Qqo1dJbFf-78" style="edgeStyle=orthogonalEdgeStyle;rounded=0;orthogonalLoop=1;jettySize=auto;html=1;entryX=0.5;entryY=1;entryDx=0;entryDy=0;" edge="1" parent="WIyWlLk6GJQsqaUBKTNV-1" source="GOfJNdNeNU2Qqo1dJbFf-76" target="GOfJNdNeNU2Qqo1dJbFf-66">
          <mxGeometry relative="1" as="geometry" />
        </mxCell>
        <mxCell id="GOfJNdNeNU2Qqo1dJbFf-76" value="porcentaje_propina" style="shape=parallelogram;perimeter=parallelogramPerimeter;whiteSpace=wrap;html=1;fixedSize=1;" vertex="1" parent="WIyWlLk6GJQsqaUBKTNV-1">
          <mxGeometry x="335" y="510" width="120" height="60" as="geometry" />
        </mxCell>
        <mxCell id="GOfJNdNeNU2Qqo1dJbFf-85" style="edgeStyle=orthogonalEdgeStyle;rounded=0;orthogonalLoop=1;jettySize=auto;html=1;entryX=0.5;entryY=0;entryDx=0;entryDy=0;" edge="1" parent="WIyWlLk6GJQsqaUBKTNV-1" source="GOfJNdNeNU2Qqo1dJbFf-82" target="GOfJNdNeNU2Qqo1dJbFf-84">
          <mxGeometry relative="1" as="geometry" />
        </mxCell>
        <mxCell id="GOfJNdNeNU2Qqo1dJbFf-82" value="valor_total = valor_cuenta + propina" style="rounded=0;whiteSpace=wrap;html=1;" vertex="1" parent="WIyWlLk6GJQsqaUBKTNV-1">
          <mxGeometry x="230" y="720" width="120" height="60" as="geometry" />
        </mxCell>
        <mxCell id="GOfJNdNeNU2Qqo1dJbFf-86" style="edgeStyle=orthogonalEdgeStyle;rounded=0;orthogonalLoop=1;jettySize=auto;html=1;" edge="1" parent="WIyWlLk6GJQsqaUBKTNV-1" source="GOfJNdNeNU2Qqo1dJbFf-84" target="GOfJNdNeNU2Qqo1dJbFf-8">
          <mxGeometry relative="1" as="geometry" />
        </mxCell>
        <mxCell id="GOfJNdNeNU2Qqo1dJbFf-84" value="propina, valor_total" style="shape=document;whiteSpace=wrap;html=1;boundedLbl=1;" vertex="1" parent="WIyWlLk6GJQsqaUBKTNV-1">
          <mxGeometry x="240" y="840" width="120" height="80" as="geometry" />
        </mxCell>
      </root>
    </mxGraphModel>
  </diagram>
</mxfile>
